<svg id="Layer_1" data-name="Layer 1" xmlns="http://www.w3.org/2000/svg" viewBox="0 0 61.81 63.89"><defs><style>.cls-1,.cls-2{fill:none;stroke:#fbb040;}.cls-1{stroke-miterlimit:10;}</style></defs><g id="Social"><g id="g_" data-name="g "><g id="Ellipse_41" data-name="Ellipse 41"><circle class="cls-1" cx="30.68" cy="31.58" r="28"/><circle class="cls-2" cx="30.68" cy="31.58" r="27.5"/></g><g id="g_2" data-name="g 2"><path id="Path_51" data-name="Path 51" class="cls-1" d="M38.68,31v1.5h-1.5V34h-1.5v-1.6h-1.5V31h1.5v-1.5h1.5V31Zm-10.9,0h4.8c0,.3.1.5.1.8a4.71,4.71,0,0,1-4.39,5h-.51a5.1,5.1,0,0,1,0-10.2,5,5,0,0,1,3.4,1.3l-1.4,1.4a2.65,2.65,0,0,0-2-.8,3.22,3.22,0,0,0-3.2,3.2,3.15,3.15,0,0,0,3.12,3.2h.08a2.73,2.73,0,0,0,2.9-2.2h-2.9Z"/></g></g></g></svg>