<svg id="Layer_1" data-name="Layer 1" xmlns="http://www.w3.org/2000/svg" viewBox="0 0 80.15 63.89"><defs><style>.cls-1,.cls-2{fill:none;}.cls-1,.cls-2,.cls-3{stroke:#fbb040;}.cls-1,.cls-3{stroke-miterlimit:10;}.cls-3{fill:#231f20;}</style></defs><g id="Social"><g id="g_" data-name="g "><g id="Ellipse_41" data-name="Ellipse 41"><circle class="cls-1" cx="40.07" cy="31.58" r="28"/><circle class="cls-2" cx="40.07" cy="31.58" r="27.5"/></g></g></g><g id="social-2" data-name="social"><g id="Symbol_13_4" data-name="Symbol 13 4"><path id="Path_3" data-name="Path 3" class="cls-3" d="M40.07,25.37a24.39,24.39,0,0,1,3.2.09,4.07,4.07,0,0,1,1.51.26,3.14,3.14,0,0,1,1.52,1.51,4.14,4.14,0,0,1,.26,1.51c0,.8.09,1.07.09,3.2a24.39,24.39,0,0,1-.09,3.2,4.16,4.16,0,0,1-.26,1.52,3.14,3.14,0,0,1-1.52,1.51,4.07,4.07,0,0,1-1.51.26c-.8,0-1.06.09-3.2.09a24.48,24.48,0,0,1-3.2-.09,4.1,4.1,0,0,1-1.51-.26,3.16,3.16,0,0,1-1.51-1.51,4.39,4.39,0,0,1-.27-1.52c0-.8-.08-1.06-.08-3.2a26.36,26.36,0,0,1,.08-3.2,4.37,4.37,0,0,1,.27-1.51,3.47,3.47,0,0,1,.62-.89,1.52,1.52,0,0,1,.89-.62,4.1,4.1,0,0,1,1.51-.26,24.48,24.48,0,0,1,3.2-.09m0-1.43a27.87,27.87,0,0,0-3.29.09,5.43,5.43,0,0,0-2,.36,3.75,3.75,0,0,0-2.31,2.31,4.1,4.1,0,0,0-.36,2,25.67,25.67,0,0,0-.09,3.28,25.78,25.78,0,0,0,.09,3.29,5.49,5.49,0,0,0,.36,2,3.36,3.36,0,0,0,.89,1.42,3.46,3.46,0,0,0,1.42.89,5.45,5.45,0,0,0,2,.36,27.63,27.63,0,0,0,3.28.08,27.75,27.75,0,0,0,3.29-.08,5.49,5.49,0,0,0,2-.36,3.73,3.73,0,0,0,2.31-2.31,5.49,5.49,0,0,0,.36-2c0-.89.08-1.15.08-3.29A25.67,25.67,0,0,0,48,28.66a5.23,5.23,0,0,0-.35-2,3.46,3.46,0,0,0-.89-1.42,3.42,3.42,0,0,0-1.42-.89,5.49,5.49,0,0,0-2-.36,27.75,27.75,0,0,0-3.29-.09m0,3.92A4,4,0,0,0,36,31.81v.13a4.09,4.09,0,1,0,4.09-4.08h0m0,6.75A2.61,2.61,0,0,1,37.41,32v-.1A2.61,2.61,0,0,1,40,29.28h.09a2.62,2.62,0,0,1,2.67,2.57v.09a2.62,2.62,0,0,1-2.57,2.67h-.1m4.27-7.91a1,1,0,1,0,1,1h0a1,1,0,0,0-1-1"/></g></g></svg>