<svg id="Layer_1" data-name="Layer 1" xmlns="http://www.w3.org/2000/svg" viewBox="0 0 61.76 56.62"><defs><style>.cls-1,.cls-2{fill:none;stroke:#fbb040;}.cls-1{stroke-miterlimit:10;}</style></defs><g id="Social"><g id="twitter"><g id="Symbol_2_1" data-name="Symbol 2 1"><path id="Path_2" data-name="Path 2" class="cls-1" d="M27.51,35.6a9.26,9.26,0,0,0,9.33-9.17v-.61a7.14,7.14,0,0,0,1.6-1.69,7.25,7.25,0,0,1-1.87.53A3.43,3.43,0,0,0,38,22.88a7.94,7.94,0,0,1-2,.8,3.18,3.18,0,0,0-2.4-1.06,3.34,3.34,0,0,0-3.29,3.29,1.72,1.72,0,0,0,.09.71,9.19,9.19,0,0,1-6.76-3.47,3.46,3.46,0,0,0-.44,1.69,3.53,3.53,0,0,0,1.42,2.76,3,3,0,0,1-1.51-.45h0a3.25,3.25,0,0,0,2.67,3.2,2.67,2.67,0,0,1-.89.09,1.32,1.32,0,0,1-.62-.09,3.35,3.35,0,0,0,3.11,2.31,6.69,6.69,0,0,1-4.09,1.43,2.69,2.69,0,0,1-.8-.09,8.44,8.44,0,0,0,5.07,1.6"/></g><g id="Ellipse_42" data-name="Ellipse 42"><circle class="cls-1" cx="30.44" cy="28.62" r="28"/><circle class="cls-2" cx="30.44" cy="28.62" r="27.5"/></g></g></g></svg>