<svg id="Layer_1" data-name="Layer 1" xmlns="http://www.w3.org/2000/svg" viewBox="0 0 59.32 55.5"><defs><style>.cls-1,.cls-2{fill:none;stroke:#231f20;}.cls-1{stroke-miterlimit:10;}</style></defs><g id="Social"><g id="twitter"><g id="Symbol_2_1" data-name="Symbol 2 1"><path id="Path_2" data-name="Path 2" class="cls-1" d="M25.07,34.48a9.25,9.25,0,0,0,9.33-9.17V24.7A7.14,7.14,0,0,0,36,23a7.14,7.14,0,0,1-1.87.53,3.47,3.47,0,0,0,1.43-1.77,8.82,8.82,0,0,1-2.05.8,3.15,3.15,0,0,0-2.4-1.07,3.35,3.35,0,0,0-3.29,3.29,1.72,1.72,0,0,0,.09.71A9.19,9.19,0,0,1,21.15,22a3.46,3.46,0,0,0-.44,1.69,3.53,3.53,0,0,0,1.42,2.76A3,3,0,0,1,20.62,26h0a3.24,3.24,0,0,0,2.67,3.2,2.67,2.67,0,0,1-.89.09,1.32,1.32,0,0,1-.62-.09,3.37,3.37,0,0,0,3.11,2.32A6.74,6.74,0,0,1,20.8,33a2.69,2.69,0,0,1-.8-.09,8.38,8.38,0,0,0,5.07,1.6"/></g><g id="Ellipse_42" data-name="Ellipse 42"><circle class="cls-1" cx="28" cy="27.5" r="28"/><circle class="cls-2" cx="28" cy="27.5" r="27.5"/></g></g></g></svg>